<?xml version="1.0" encoding="UTF-8" standalone="no"?>
<svg
   xmlns:dc="http://purl.org/dc/elements/1.1/"
   xmlns:cc="http://creativecommons.org/ns#"
   xmlns:rdf="http://www.w3.org/1999/02/22-rdf-syntax-ns#"
   xmlns:svg="http://www.w3.org/2000/svg"
   xmlns="http://www.w3.org/2000/svg"
   xmlns:sodipodi="http://sodipodi.sourceforge.net/DTD/sodipodi-0.dtd"
   xmlns:inkscape="http://www.inkscape.org/namespaces/inkscape"
   version="1.1"
   x="0px"
   y="0px"
   viewBox="0 0 100 100"
   xml:space="preserve"
   id="svg8"
   sodipodi:docname="noun_Windscreen Defrost_457522.svg"
   width="100"
   height="100"
   inkscape:version="0.92.4 (5da689c313, 2019-01-14)"><metadata
     id="metadata14"><rdf:RDF><cc:Work
         rdf:about=""><dc:format>image/svg+xml</dc:format><dc:type
           rdf:resource="http://purl.org/dc/dcmitype/StillImage" /><dc:title></dc:title></cc:Work></rdf:RDF></metadata><defs
     id="defs12" /><sodipodi:namedview
     pagecolor="#ffffff"
     bordercolor="#666666"
     borderopacity="1"
     objecttolerance="10"
     gridtolerance="10"
     guidetolerance="10"
     inkscape:pageopacity="0"
     inkscape:pageshadow="2"
     inkscape:window-width="2560"
     inkscape:window-height="1376"
     id="namedview10"
     showgrid="false"
     inkscape:zoom="5.3400704"
     inkscape:cx="40.482385"
     inkscape:cy="17.176895"
     inkscape:window-x="0"
     inkscape:window-y="27"
     inkscape:window-maximized="1"
     inkscape:current-layer="svg8" /><path
     d="m 93.6,32.006039 c -11.6,-11.6 -27.1,-18.1 -43.6,-18.1 -16.5,0 -32,6.4 -43.6,18.1 l -1.4,1.4 17.6,39.3 2.9,-2.9 c 1.1,-1.1 3.2,-2.1 5.9,-3 0.2,0.5 0.4,0.8 0.5,1 1.3,2.7 2.7,6.5 2.7,7.8 0,1.3 -1.4,5.1 -2.7,7.8 l 5.1,2.5 c 0.5,-1.1 3.2,-7 3.2,-10.2 0,-3.2 -2.7,-9.1 -3.2,-10.2 0,0 0,-0.1 -0.1,-0.2 3.3,-0.8 6.8,-1.3 9.7,-1.6 0.7,1.9 1.5,3.6 1.8,4.2 1.3,2.7 2.7,6.5 2.7,7.8 0,1.3 -1.4,5.1 -2.7,7.8 l 5.1,2.4 c 0.5,-1.1 3.2,-7 3.2,-10.2 0,-3.2 -2.7,-9.1 -3.2,-10.2 -0.3,-0.6 -0.5,-1.2 -0.8,-1.8 3.3,0.3 7.4,0.9 11.2,1.8 0.5,1.1 0.9,2 1.1,2.4 1.3,2.7 2.7,6.5 2.7,7.8 0,1.3 -1.4,5.1 -2.7,7.8 l 5.1,2.4 c 0.5,-1.1 3.2,-7 3.2,-10.2 0,-2.2 -1.2,-5.5 -2.2,-7.9 1.5,0.6 2.6,1.3 3.3,2 l 2.9,2.9 17.7,-39.3 z m -18.3,31.5 c -2,-1.1 -4.5,-2 -7.1,-2.8 -0.5,-1.3 -0.8,-2.5 -0.8,-3.1 0,-1.2 1.2,-4.5 2.4,-7.2 h 3.6 l -6.8,-15.4 -6.8,15.4 h 3.9 c -0.9,2.3 -1.9,5.2 -1.9,7.2 0,0.5 0.1,1 0.2,1.6 -4.3,-0.8 -8.4,-1.3 -11,-1.4 0,-0.1 0,-0.2 0,-0.2 0,-1.2 1.2,-4.5 2.4,-7.2 H 57 l -6.8,-15.4 -6.8,15.4 h 3.9 c -0.9,2.3 -1.9,5.2 -1.9,7.2 0,0.2 0,0.3 0,0.5 -3,0.3 -6.8,0.9 -10.4,1.8 -0.3,-1 -0.5,-1.8 -0.5,-2.3 0,-1.2 1.2,-4.5 2.4,-7.2 h 3.6 l -6.8,-15.4 -6.8,15.4 h 3.9 c -0.9,2.3 -1.9,5.2 -1.9,7.2 0,1.1 0.3,2.5 0.7,3.9 -1.7,0.6 -3.3,1.3 -4.7,2 l -13.1,-28.8 c 10.4,-9.7 23.9,-15 38.2,-15 14.3,0 27.8,5.3 38.2,15 z"
     id="path2"
     inkscape:connector-curvature="0" /></svg>