<?xml version="1.0" encoding="UTF-8" standalone="no"?>
<svg
   xmlns:dc="http://purl.org/dc/elements/1.1/"
   xmlns:cc="http://creativecommons.org/ns#"
   xmlns:rdf="http://www.w3.org/1999/02/22-rdf-syntax-ns#"
   xmlns:svg="http://www.w3.org/2000/svg"
   xmlns="http://www.w3.org/2000/svg"
   xmlns:sodipodi="http://sodipodi.sourceforge.net/DTD/sodipodi-0.dtd"
   xmlns:inkscape="http://www.inkscape.org/namespaces/inkscape"
   version="1.1"
   x="0px"
   y="0px"
   viewBox="0 0 99.999996 99.999996"
   enable-background="new 0 0 64.69 65.84"
   xml:space="preserve"
   id="svg8"
   sodipodi:docname="noun_Power Window_172173.svg"
   width="100"
   height="100"
   inkscape:version="0.92.4 (5da689c313, 2019-01-14)"><metadata
     id="metadata14"><rdf:RDF><cc:Work
         rdf:about=""><dc:format>image/svg+xml</dc:format><dc:type
           rdf:resource="http://purl.org/dc/dcmitype/StillImage" /><dc:title></dc:title></cc:Work></rdf:RDF></metadata><defs
     id="defs12" /><sodipodi:namedview
     pagecolor="#ffffff"
     bordercolor="#666666"
     borderopacity="1"
     objecttolerance="10"
     gridtolerance="10"
     guidetolerance="10"
     inkscape:pageopacity="0"
     inkscape:pageshadow="2"
     inkscape:window-width="2560"
     inkscape:window-height="1376"
     id="namedview10"
     showgrid="false"
     inkscape:zoom="5.7351152"
     inkscape:cx="20.433723"
     inkscape:cy="23.690538"
     inkscape:window-x="0"
     inkscape:window-y="27"
     inkscape:window-maximized="1"
     inkscape:current-layer="svg8" /><path
     d="M 76.704469,92.083836 H 23.256148 c -7.725981,0 -14.0148341,-6.292627 -14.0148341,-14.01483 V 30.25584 L 37.933496,9.156127 h 38.769713 c 7.723462,0 14.017353,6.291372 14.017353,14.014835 v 54.898044 c 0,7.722203 -6.293891,14.01483 -14.016093,14.01483 z M 56.442347,54.542173 v 12.381218 h 6.462668 L 49.980938,79.304609 37.055601,66.923391 H 43.51701 V 54.542173 H 17.73687 V 83.165081 H 82.223746 V 54.542173 Z m -12.925337,0 H 56.442347 V 42.158435 h 6.462668 L 49.980938,29.777217 37.055601,42.158435 H 43.51701 Z M 17.73687,38.468001 41.465229,21.017158 H 82.223746 V 17.277602 H 40.678021 L 17.73687,34.1478 Z"
     id="path2"
     inkscape:connector-curvature="0"
     style="clip-rule:evenodd;fill:#000000;fill-rule:evenodd;stroke-width:1" /></svg>