<?xml version="1.0" encoding="UTF-8" standalone="no"?>
<svg
   xmlns:dc="http://purl.org/dc/elements/1.1/"
   xmlns:cc="http://creativecommons.org/ns#"
   xmlns:rdf="http://www.w3.org/1999/02/22-rdf-syntax-ns#"
   xmlns:svg="http://www.w3.org/2000/svg"
   xmlns="http://www.w3.org/2000/svg"
   xmlns:sodipodi="http://sodipodi.sourceforge.net/DTD/sodipodi-0.dtd"
   xmlns:inkscape="http://www.inkscape.org/namespaces/inkscape"
   version="1.1"
   x="0px"
   y="0px"
   viewBox="0 0 100 100"
   xml:space="preserve"
   id="svg14"
   sodipodi:docname="noun_Temperature Warning_457516.svg"
   width="100"
   height="100"
   inkscape:version="0.92.4 (5da689c313, 2019-01-14)"><metadata
     id="metadata20"><rdf:RDF><cc:Work
         rdf:about=""><dc:format>image/svg+xml</dc:format><dc:type
           rdf:resource="http://purl.org/dc/dcmitype/StillImage" /><dc:title></dc:title></cc:Work></rdf:RDF></metadata><defs
     id="defs18" /><sodipodi:namedview
     pagecolor="#ffffff"
     bordercolor="#666666"
     borderopacity="1"
     objecttolerance="10"
     gridtolerance="10"
     guidetolerance="10"
     inkscape:pageopacity="0"
     inkscape:pageshadow="2"
     inkscape:window-width="780"
     inkscape:window-height="517"
     id="namedview16"
     showgrid="false"
     inkscape:zoom="7.552"
     inkscape:cx="54.43615"
     inkscape:cy="53.791824"
     inkscape:window-x="750"
     inkscape:window-y="269"
     inkscape:window-maximized="0"
     inkscape:current-layer="svg14" /><path
     d="m 50,70.47267 c 3.7,0 6.7,-3 6.7,-6.7 0,-2.5 -1.4,-4.7 -3.5,-5.9 v -13.1 h 11.1 c 1.8,0 3.2,-1.4 3.2,-3.2 0,-1.8 -1.4,-3.2 -3.2,-3.2 H 53.2 v -4.2 h 11.1 c 1.8,0 3.2,-1.4 3.2,-3.2 0,-1.8 -1.4,-3.2 -3.2,-3.2 H 53.2 v -4.1 h 11.1 c 1.8,0 3.2,-1.4 3.2,-3.2 0,-1.8 -1.4,-3.2 -3.2,-3.2 H 53.2 v -3.9 c 0,-1.8 -1.4,-3.2 -3.2,-3.2 -1.8,0 -3.2,1.4 -3.2,3.2 v 44.5 c -2.1,1.1 -3.5,3.3 -3.5,5.9 0,3.6 3,6.7 6.7,6.7 z"
     id="path2"
     inkscape:connector-curvature="0" /><path
     d="m 91.8,73.47267 c -4.7,0 -7.3,2.3 -9.1,4 -1.6,1.5 -2.6,2.3 -4.8,2.3 -2.2,0 -3.2,-0.9 -4.8,-2.3 -1.9,-1.7 -4.4,-4 -9.1,-4 -4.7,0 -7.3,2.3 -9.1,4 -1.6,1.5 -2.6,2.3 -4.8,2.3 -2.2,0 -3.2,-0.9 -4.8,-2.3 -1.9,-1.7 -4.4,-4 -9.1,-4 -4.7,0 -7.3,2.3 -9.1,4 -1.6,1.5 -2.6,2.3 -4.8,2.3 -2.2,0 -3.2,-0.9 -4.8,-2.3 -1.9,-1.7 -4.4,-4 -9.1,-4 -1.8,0 -3.2,1.4 -3.2,3.2 0,1.8 1.4,3.2 3.2,3.2 2.2,0 3.2,0.9 4.8,2.3 1.9,1.7 4.4,4 9.1,4 4.7,0 7.3,-2.3 9.1,-4 1.6,-1.5 2.6,-2.3 4.8,-2.3 2.2,0 3.2,0.9 4.8,2.3 1.9,1.7 4.4,4 9.1,4 4.7,0 7.3,-2.3 9.1,-4 1.6,-1.5 2.6,-2.3 4.8,-2.3 2.2,0 3.2,0.9 4.8,2.3 1.9,1.7 4.4,4 9.1,4 4.7,0 7.3,-2.3 9.1,-4 1.6,-1.5 2.6,-2.3 4.8,-2.3 1.8,0 3.2,-1.4 3.2,-3.2 0,-1.8 -1.4,-3.2 -3.2,-3.2 z"
     id="path4"
     inkscape:connector-curvature="0" /><path
     d="m 60.7,62.97267 c 0,1.8 1.4,3.2 3.2,3.2 2.2,0 3.2,0.9 4.8,2.3 1.9,1.7 4.4,4 9.1,4 4.7,0 7.3,-2.3 9.1,-4 1.6,-1.5 2.6,-2.3 4.8,-2.3 1.8,0 3.2,-1.4 3.2,-3.2 0,-1.8 -1.4,-3.2 -3.2,-3.2 -4.7,0 -7.3,2.3 -9.1,4 -1.6,1.5 -2.6,2.3 -4.8,2.3 -2.2,0 -3.2,-0.9 -4.8,-2.3 -1.9,-1.7 -4.4,-4 -9.1,-4 -1.7,0 -3.2,1.5 -3.2,3.2 z"
     id="path6"
     inkscape:connector-curvature="0" /><path
     d="m 8.2,66.17267 c 2.2,0 3.2,0.9 4.8,2.3 1.9,1.7 4.4,4 9.1,4 4.7,0 7.3,-2.3 9.1,-4 1.6,-1.5 2.6,-2.3 4.8,-2.3 1.8,0 3.2,-1.4 3.2,-3.2 0,-1.8 -1.4,-3.2 -3.2,-3.2 -4.7,0 -7.3,2.3 -9.1,4 -1.6,1.5 -2.6,2.3 -4.8,2.3 -2.2,0 -3.2,-0.9 -4.8,-2.3 -1.9,-1.7 -4.4,-4 -9.1,-4 -1.8,0 -3.2,1.4 -3.2,3.2 0,1.8 1.4,3.2 3.2,3.2 z"
     id="path8"
     inkscape:connector-curvature="0" /></svg>